first trial
nRows=19
nColumns=38

# SIMM Motion File Header:
name Sujet_08_velo_100.mvnx
datacolumns 38
datarows 19
otherdata 1
range 7.7660 8.0660
endheader
time pelvis_tilt  pelvis_list  pelvis_rotation  pelvis_tx  pelvis_ty  pelvis_tz  hip_flexion_r  hip_adduction_r  hip_rotation_r  knee_angle_r  ankle_angle_r  subtalar_angle_r  mtp_angle_r  hip_flexion_l  hip_adduction_l  hip_rotation_l  knee_angle_l  ankle_angle_l  subtalar_angle_l  mtp_angle_l  lumbar_extension  lumbar_bending  lumbar_rotation  arm_flex_r  arm_add_r  arm_rot_r  elbow_flex_r  pro_sup_r  wrist_flex_r  wrist_dev_r  arm_flex_l  arm_add_l  arm_rot_l  elbow_flex_l  pro_sup_l  wrist_flex_l  wrist_dev_l
7.7660	-24.5330	5.1207	46.4074	0.0000	1.2500	-0.0000	61.6427	-7.1640	-7.4858	67.5823	-24.2344	11.4790	-0.0000	92.7477	5.9167	-1.9908	81.0687	-5.0270	4.3641	0.0000	-12.8210	-1.4441	-0.5624	88.8393	-11.0292	23.7188	1.3131	85.1522	-35.9782	-21.5957	89.6382	-9.0305	12.6411	8.5648	88.6348	-34.7481	-25.2563	
7.7830	-24.3130	4.7860	45.9232	0.0000	1.2500	-0.0000	64.4886	-6.5781	-5.8039	74.4375	-23.3521	12.6504	0.0000	88.9018	5.4484	-3.9616	74.7190	-6.5115	4.9772	-0.0000	-12.8178	-1.3274	-0.4389	88.8029	-10.8466	23.8701	1.1979	85.2668	-35.8782	-21.6008	89.2659	-9.0618	12.7911	8.4429	88.3949	-34.8057	-25.2979	
7.8000	-24.1562	4.4695	45.2971	0.0000	1.2500	-0.0000	67.6081	-5.9304	-4.3202	80.9173	-22.1385	13.5500	-0.0000	84.6957	4.8509	-5.9913	68.2370	-8.1919	5.4255	-0.0000	-12.8084	-1.2510	-0.2738	88.7324	-10.5990	23.9438	1.1497	85.4948	-35.7954	-21.5693	88.8983	-9.1458	12.8433	8.3548	88.2178	-34.8147	-25.3619	
7.8160	-24.0885	4.2188	44.4888	0.0000	1.2500	-0.0000	71.0586	-5.3005	-3.1108	86.9587	-20.5893	13.9567	0.0000	80.0489	4.1068	-8.1136	61.4818	-10.0933	5.6462	-0.0000	-12.7984	-1.2404	-0.0607	88.5920	-10.2569	23.8760	1.2687	85.8899	-35.7245	-21.4521	88.5369	-9.3325	12.6407	8.3679	88.2457	-34.7469	-25.4297	
7.8330	-24.0830	3.9837	43.5364	0.0000	1.2500	-0.0000	74.7842	-4.6058	-2.1361	92.6262	-18.7128	14.0643	0.0000	75.0395	3.3347	-10.3892	54.6091	-12.1767	5.6734	-0.0000	-12.7822	-1.2701	0.1947	88.4165	-9.8514	23.7315	1.4535	86.3996	-35.6700	-21.2981	88.1780	-9.5724	12.3384	8.4166	88.3357	-34.6308	-25.5201	
7.8500	-24.1558	3.8048	42.5596	0.0000	1.2500	-0.0000	78.5694	-3.8364	-1.4688	97.4837	-16.5685	13.8764	0.0000	70.2911	2.6361	-12.2848	48.5198	-14.1666	5.6024	-0.0000	-12.7675	-1.3470	0.4708	88.3573	-9.4335	23.6256	1.4871	86.8806	-35.6664	-21.1941	87.9444	-9.7872	12.1900	8.4073	88.2302	-34.5277	-25.6767	
7.8660	-24.3486	3.7450	41.5517	0.0000	1.2500	-0.0000	82.5066	-2.9921	-1.2466	101.5093	-14.0283	13.4257	0.0000	65.8105	1.9045	-13.5415	43.2913	-16.0817	5.4620	0.0000	-12.7570	-1.5161	0.7784	88.5371	-9.0076	23.6625	1.2194	87.2375	-35.7397	-21.2049	87.9465	-9.9183	12.2949	8.2398	87.8202	-34.4732	-25.9459	
7.8830	-24.6232	3.7356	40.5170	0.0000	1.2500	-0.0000	86.5010	-2.1230	-1.3502	104.7359	-11.2171	12.6888	0.0000	61.5729	1.1320	-14.4081	38.8918	-17.9068	5.3097	0.0000	-12.7461	-1.7341	1.1059	88.8316	-8.5660	23.7368	0.8016	87.5621	-35.8647	-21.2661	88.0746	-10.0280	12.5540	8.0008	87.2091	-34.4321	-26.2819	
7.9000	-24.8733	3.6225	39.5929	0.0000	1.2500	-0.0000	90.0640	-1.3064	-1.4108	106.8029	-8.5807	11.6191	0.0000	58.1616	0.4224	-15.0280	36.0569	-19.3502	5.2666	0.0000	-12.7330	-1.8748	1.3978	89.0232	-8.1424	23.6494	0.4702	87.9929	-35.9991	-21.2700	88.1236	-10.2185	12.9231	7.8811	86.4639	-34.3601	-26.5889	
7.9160	-25.0669	3.3241	38.7909	0.0000	1.2500	-0.0000	93.2225	-0.5532	-1.2298	107.6135	-6.1517	9.9305	0.0000	55.7441	-0.3066	-15.3273	35.0686	-20.2507	5.3197	-0.0000	-12.7057	-1.8799	1.6450	88.9783	-7.7227	23.2676	0.3027	88.6479	-36.1366	-21.1680	87.9367	-10.5734	13.4531	7.9857	85.5175	-34.2313	-26.8605	
7.9330	-25.2318	2.9248	38.0995	0.0000	1.2500	-0.0000	95.9624	0.1327	-0.9439	107.2772	-3.9133	8.0112	0.0000	54.1580	-1.0989	-15.3175	35.6338	-20.7748	5.4229	0.0000	-12.6784	-1.8068	1.8576	88.8337	-7.3243	22.7255	0.2246	89.4119	-36.2840	-21.0087	87.6696	-11.0085	14.0892	8.2248	84.4432	-34.0715	-27.1017	
7.9500	-25.3513	2.5234	37.6241	0.0000	1.2500	-0.0000	97.7371	0.6930	-0.6242	105.7167	-2.2216	6.7311	-0.0000	53.5037	-1.7922	-15.2208	37.6254	-21.1391	5.5818	-0.0000	-12.6880	-1.7029	2.0099	88.7795	-7.0281	22.2247	0.2437	90.0767	-36.4195	-20.8299	87.5864	-11.3722	14.6299	8.5012	83.5253	-33.9125	-27.2328	
7.9660	-25.4268	2.0824	37.4312	0.0000	1.2500	-0.0000	98.3144	1.1309	-0.0228	102.6836	-1.1635	6.4125	0.0000	53.9764	-2.3579	-15.1751	41.3019	-21.4387	5.7339	-0.0000	-12.7667	-1.5497	2.0875	88.9512	-6.8779	21.7845	0.4150	90.6034	-36.5434	-20.6112	87.8416	-11.6201	15.0395	8.8498	82.8108	-33.7484	-27.1932	
7.9830	-25.4615	1.6420	37.4564	0.0000	1.2500	-0.0000	97.9222	1.4374	0.6750	98.4152	-0.6345	6.6037	0.0000	55.3900	-2.8192	-14.9855	46.4188	-21.5633	5.8767	0.0000	-12.8814	-1.3657	2.1061	89.2129	-6.8282	21.3848	0.6822	91.0308	-36.6557	-20.3718	88.2827	-11.7958	15.3596	9.2333	82.2542	-33.5844	-27.0442	
8.0000	-25.4432	1.4181	37.6093	0.0000	1.2500	-0.0000	96.7079	1.5411	0.7498	93.5289	-0.6836	6.9479	-0.0000	57.2694	-3.0677	-14.3897	52.1010	-21.4347	6.1767	-0.0000	-12.9699	-1.2542	2.0843	89.3479	-6.8258	21.1676	0.8817	91.2674	-36.7328	-20.2095	88.7145	-11.8789	15.5063	9.4367	81.9977	-33.4698	-26.8881	
8.0160	-25.3527	1.5628	37.8617	0.0000	1.2500	-0.0000	94.6206	1.4923	-0.2797	88.0636	-1.3715	7.4002	-0.0000	59.4988	-2.9475	-13.2335	58.2779	-20.9468	6.8630	-0.0000	-13.0052	-1.2880	2.0192	89.2517	-6.8564	21.2510	0.9257	91.2180	-36.7489	-20.1915	89.0960	-11.8294	15.3605	9.2986	82.2039	-33.4491	-26.7511	
8.0330	-25.2067	1.9226	38.2409	0.0000	1.2500	-0.0000	91.7187	1.3119	-1.9614	81.9437	-2.6425	8.0160	0.0000	62.1886	-2.5530	-11.7244	65.0215	-20.2099	7.7765	-0.0000	-13.0148	-1.3943	1.9125	89.0303	-6.9331	21.5183	0.9016	90.9779	-36.7292	-20.2512	89.4693	-11.6871	15.0400	8.9820	82.7084	-33.4780	-26.6067	
8.0500	-25.0472	2.2560	38.7412	0.0000	1.2500	-0.0000	88.3130	0.8808	-3.6376	75.6208	-4.3756	8.6436	0.0000	65.2047	-2.1605	-10.1408	71.6451	-19.4850	8.5576	0.0000	-13.0190	-1.4569	1.7877	88.7825	-7.0459	21.7593	0.9071	90.7423	-36.7260	-20.2865	89.7616	-11.5510	14.8144	8.7542	83.1615	-33.4718	-26.4779	
8.0660	-24.8699	2.4813	39.3861	0.0000	1.2500	-0.0000	84.3542	0.0950	-5.1722	69.0936	-6.7079	9.2671	0.0000	68.5675	-1.8520	-8.4832	78.0887	-18.9185	9.0825	-0.0000	-13.0229	-1.4270	1.6531	88.5010	-7.1772	21.8890	1.0004	90.6083	-36.7744	-20.2348	89.9155	-11.4890	14.8305	8.7440	83.3984	-33.3675	-26.3843	
